<?xml version="1.0" encoding="utf-8"?>
<!-- Generator: Adobe Illustrator 19.0.0, SVG Export Plug-In . SVG Version: 6.00 Build 0)  -->
<svg version="1.1" id="Capa_1" xmlns="http://www.w3.org/2000/svg" xmlns:xlink="http://www.w3.org/1999/xlink" x="0px" y="0px"
	 viewBox="-41 164.9 512 512" style="enable-background:new -41 164.9 512 512;" xml:space="preserve">
<style type="text/css">
	.st0{fill:#ECEFF1;}
	.st1{fill:#1976D2;}
	.st2{fill:#2196F3;}
	.st3{fill:#FAFAFA;}
</style>
<path class="st0" d="M417.7,250.2H215c-1.1,0-2.3,0.2-3.4,0.5l-2.6,0.9c-5.6,1.9-8.6,7.9-6.8,13.5c0,0,0,0.1,0,0.1l107.2,313.3
	L239,659.2c-3.9,4.4-3.4,11.2,1,15.1c1.9,1.7,4.4,2.6,7,2.6h170.7c29.5,0,53.3-23.9,53.3-53.3v-320
	C471,274.1,447.1,250.2,417.7,250.2z"/>
<path class="st1" d="M331.4,576.5c-1.7-3.8-5.5-6.2-9.7-6.3H215c-5.9,0-10.7,4.8-10.7,10.7c0,1.3,0.2,2.6,0.7,3.8l32,85.3
	c1.3,3.5,4.4,6.1,8.1,6.7c0.6,0.1,1.3,0.2,1.9,0.2c3.1,0,6-1.3,8-3.6l74.7-85.3C332.4,584.8,333.1,580.3,331.4,576.5z"/>
<path class="st2" d="M331.8,577.4L193.1,172.1c-1.5-4.3-5.5-7.2-10.1-7.2H12.3c-29.5,0-53.3,23.9-53.3,53.3v320
	c0,29.5,23.9,53.3,53.3,53.3h309.3c5.9,0,10.7-4.8,10.7-10.7C332.3,579.7,332.1,578.5,331.8,577.4z"/>
<g>
	<path class="st3" d="M161.7,463.6c-4.5,0-8.5-2.8-10-7.1l-43.3-121.2L65,456.5c-2.2,5.5-8.4,8.1-13.9,5.9
		c-5.2-2.1-7.8-7.8-6.2-13.1L98.3,300c2.6-5.5,9.2-7.9,14.8-5.3c2.3,1.1,4.2,3,5.3,5.3l53.3,149.3c2,5.5-0.9,11.6-6.4,13.6
		C164.1,463.4,162.9,463.6,161.7,463.6z"/>
	<path class="st3" d="M129.7,399.6H87c-5.9,0-10.7-4.8-10.7-10.7c0-5.9,4.8-10.7,10.7-10.7h42.7c5.9,0,10.7,4.8,10.7,10.7
		C140.3,394.8,135.6,399.6,129.7,399.6z"/>
</g>
<g>
	<path d="M368.7,541.7c-1.3,0-1.7-1.7-1.7-7.7c0-34.5-12.6-130.2-12.6-146.1c0-7.8,5.2-19.8,9.9-28.2c1.4-2.5,3.8-6,5.3-6
		c1.4,0,1.7,2.2,2,9.1c1.3,24.8,8.2,83.8,8.2,126.1c0,16.9-1.3,31.4-4.1,39.7C372.8,537.3,370.8,541.7,368.7,541.7z"/>
</g>
</svg>
